<svg xmlns="http://www.w3.org/2000/svg" width="830" height="48" viewBox="0 0 830 48" shape-rendering="crispEdges" role="img">
<defs></defs>
<rect x="0.5" y="0.5" width="829" height="47" fill="#0b120b" stroke="#1f3a1f"/>
<rect x="14" y="13" width="6" height="6" fill="#00ff66"/>
<rect x="14" y="20" width="6" height="6" fill="#0c5c2c"/>
<rect x="21" y="13" width="6" height="6" fill="#0c5c2c"/>
<rect x="21" y="20" width="6" height="6" fill="#00ff66"/>
<path d="M40 14h3v3h-3zM43 14h3v3h-3zM46 14h3v3h-3zM49 14h3v3h-3zM40 17h3v3h-3zM52 17h3v3h-3zM40 20h3v3h-3zM52 20h3v3h-3zM40 23h3v3h-3zM43 23h3v3h-3zM46 23h3v3h-3zM49 23h3v3h-3zM40 26h3v3h-3zM40 29h3v3h-3zM40 32h3v3h-3zM58 14h3v3h-3zM61 14h3v3h-3zM64 14h3v3h-3zM67 14h3v3h-3zM58 17h3v3h-3zM70 17h3v3h-3zM58 20h3v3h-3zM70 20h3v3h-3zM58 23h3v3h-3zM61 23h3v3h-3zM64 23h3v3h-3zM67 23h3v3h-3zM58 26h3v3h-3zM64 26h3v3h-3zM58 29h3v3h-3zM67 29h3v3h-3zM58 32h3v3h-3zM70 32h3v3h-3zM79 14h3v3h-3zM82 14h3v3h-3zM85 14h3v3h-3zM76 17h3v3h-3zM88 17h3v3h-3zM76 20h3v3h-3zM88 20h3v3h-3zM76 23h3v3h-3zM88 23h3v3h-3zM76 26h3v3h-3zM88 26h3v3h-3zM76 29h3v3h-3zM88 29h3v3h-3zM79 32h3v3h-3zM82 32h3v3h-3zM85 32h3v3h-3zM100 14h3v3h-3zM103 14h3v3h-3zM106 14h3v3h-3zM103 17h3v3h-3zM103 20h3v3h-3zM103 23h3v3h-3zM103 26h3v3h-3zM94 29h3v3h-3zM103 29h3v3h-3zM97 32h3v3h-3zM100 32h3v3h-3zM112 14h3v3h-3zM115 14h3v3h-3zM118 14h3v3h-3zM121 14h3v3h-3zM124 14h3v3h-3zM112 17h3v3h-3zM112 20h3v3h-3zM112 23h3v3h-3zM115 23h3v3h-3zM118 23h3v3h-3zM121 23h3v3h-3zM112 26h3v3h-3zM112 29h3v3h-3zM112 32h3v3h-3zM115 32h3v3h-3zM118 32h3v3h-3zM121 32h3v3h-3zM124 32h3v3h-3zM133 14h3v3h-3zM136 14h3v3h-3zM139 14h3v3h-3zM130 17h3v3h-3zM142 17h3v3h-3zM130 20h3v3h-3zM130 23h3v3h-3zM130 26h3v3h-3zM130 29h3v3h-3zM142 29h3v3h-3zM133 32h3v3h-3zM136 32h3v3h-3zM139 32h3v3h-3zM148 14h3v3h-3zM151 14h3v3h-3zM154 14h3v3h-3zM157 14h3v3h-3zM160 14h3v3h-3zM154 17h3v3h-3zM154 20h3v3h-3zM154 23h3v3h-3zM154 26h3v3h-3zM154 29h3v3h-3zM154 32h3v3h-3zM169 14h3v3h-3zM172 14h3v3h-3zM175 14h3v3h-3zM178 14h3v3h-3zM166 17h3v3h-3zM166 20h3v3h-3zM169 23h3v3h-3zM172 23h3v3h-3zM175 23h3v3h-3zM178 26h3v3h-3zM178 29h3v3h-3zM166 32h3v3h-3zM169 32h3v3h-3zM172 32h3v3h-3zM175 32h3v3h-3z" fill="#e6efe6" />
<text x="199" y="29" font-family="'Courier New', Consolas, 'DejaVu Sans Mono', monospace" font-size="11" fill="#6f8a6f">// SEC_06</text>
<rect x="279" y="18" width="6" height="6" fill="#1f3a1f" opacity="0.78"><animate attributeName="opacity" values="0.78;0;0.78" dur="3.1s" repeatCount="indefinite"/></rect>
<rect x="297" y="24" width="6" height="6" fill="#e6efe6" opacity="0.46"/>
<rect x="333" y="6" width="6" height="6" fill="#0c5c2c" opacity="0.6"><animate attributeName="opacity" values="0.6;0;0.6" dur="1.4s" repeatCount="indefinite"/></rect>
<rect x="357" y="24" width="6" height="6" fill="#00ff66" opacity="0.57"/>
<rect x="363" y="6" width="6" height="6" fill="#00ff66" opacity="0.68"/>
<rect x="369" y="6" width="6" height="6" fill="#0c5c2c" opacity="0.6"/>
<rect x="369" y="12" width="6" height="6" fill="#00ff66" opacity="0.78"/>
<rect x="381" y="12" width="6" height="6" fill="#0c5c2c" opacity="0.47"><animate attributeName="opacity" values="0.47;0;0.47" dur="3.2s" repeatCount="indefinite"/></rect>
<rect x="399" y="6" width="6" height="6" fill="#e6efe6" opacity="0.55"/>
<rect x="405" y="30" width="6" height="6" fill="#1f3a1f" opacity="0.48"/>
<rect x="417" y="6" width="6" height="6" fill="#0c5c2c" opacity="0.43"/>
<rect x="417" y="12" width="6" height="6" fill="#e6efe6" opacity="0.89"/>
<rect x="417" y="18" width="6" height="6" fill="#0c5c2c" opacity="0.42"/>
<rect x="429" y="12" width="6" height="6" fill="#e6efe6" opacity="0.37"/>
<rect x="429" y="36" width="6" height="6" fill="#00ff66" opacity="0.63"/>
<rect x="435" y="18" width="6" height="6" fill="#00ff66" opacity="0.31"/>
<rect x="435" y="24" width="6" height="6" fill="#0c5c2c" opacity="0.81"/>
<rect x="453" y="12" width="6" height="6" fill="#00ff66" opacity="0.73"/>
<rect x="459" y="24" width="6" height="6" fill="#e6efe6" opacity="0.86"/>
<rect x="465" y="12" width="6" height="6" fill="#0c5c2c" opacity="0.59"/>
<rect x="465" y="18" width="6" height="6" fill="#0c5c2c" opacity="0.81"><animate attributeName="opacity" values="0.81;0;0.81" dur="1.5s" repeatCount="indefinite"/></rect>
<rect x="471" y="24" width="6" height="6" fill="#1f3a1f" opacity="0.28"/>
<rect x="477" y="6" width="6" height="6" fill="#0c5c2c" opacity="0.47"><animate attributeName="opacity" values="0.47;0;0.47" dur="1.7s" repeatCount="indefinite"/></rect>
<rect x="483" y="6" width="6" height="6" fill="#00ff66" opacity="0.41"/>
<rect x="489" y="18" width="6" height="6" fill="#0c5c2c" opacity="0.44"/>
<rect x="501" y="6" width="6" height="6" fill="#e6efe6" opacity="0.48"/>
<rect x="513" y="24" width="6" height="6" fill="#00ff66" opacity="0.77"/>
<rect x="513" y="30" width="6" height="6" fill="#00ff66" opacity="0.5"/>
<rect x="519" y="12" width="6" height="6" fill="#00ff66" opacity="0.26"><animate attributeName="opacity" values="0.26;0;0.26" dur="1.4s" repeatCount="indefinite"/></rect>
<rect x="525" y="12" width="6" height="6" fill="#00ff66" opacity="0.74"><animate attributeName="opacity" values="0.74;0;0.74" dur="2.0s" repeatCount="indefinite"/></rect>
<rect x="525" y="18" width="6" height="6" fill="#00ff66" opacity="0.29"/>
<rect x="537" y="24" width="6" height="6" fill="#00ff66" opacity="0.63"/>
<rect x="537" y="30" width="6" height="6" fill="#e6efe6" opacity="0.71"/>
<rect x="543" y="30" width="6" height="6" fill="#00ff66" opacity="0.46"/>
<rect x="549" y="6" width="6" height="6" fill="#0c5c2c" opacity="0.4"/>
<rect x="549" y="12" width="6" height="6" fill="#e6efe6" opacity="0.85"><animate attributeName="opacity" values="0.85;0;0.85" dur="2.9s" repeatCount="indefinite"/></rect>
<rect x="555" y="36" width="6" height="6" fill="#e6efe6" opacity="0.41"/>
<rect x="561" y="18" width="6" height="6" fill="#00ff66" opacity="0.77"/>
<rect x="567" y="18" width="6" height="6" fill="#0c5c2c" opacity="0.57"/>
<rect x="567" y="24" width="6" height="6" fill="#00ff66" opacity="0.5"/>
<rect x="573" y="6" width="6" height="6" fill="#00ff66" opacity="0.56"/>
<rect x="573" y="36" width="6" height="6" fill="#0c5c2c" opacity="0.87"/>
<rect x="579" y="12" width="6" height="6" fill="#e6efe6" opacity="0.75"/>
<rect x="579" y="36" width="6" height="6" fill="#1f3a1f" opacity="0.52"><animate attributeName="opacity" values="0.52;0;0.52" dur="2.1s" repeatCount="indefinite"/></rect>
<rect x="585" y="36" width="6" height="6" fill="#00ff66" opacity="0.69"/>
<rect x="591" y="6" width="6" height="6" fill="#0c5c2c" opacity="0.63"/>
<rect x="591" y="12" width="6" height="6" fill="#1f3a1f" opacity="0.32"/>
<rect x="597" y="12" width="6" height="6" fill="#0c5c2c" opacity="0.38"/>
<rect x="597" y="24" width="6" height="6" fill="#0c5c2c" opacity="0.39"/>
<rect x="603" y="6" width="6" height="6" fill="#e6efe6" opacity="0.54"/>
<rect x="603" y="24" width="6" height="6" fill="#1f3a1f" opacity="0.89"/>
<rect x="603" y="30" width="6" height="6" fill="#0c5c2c" opacity="0.86"/>
<rect x="603" y="36" width="6" height="6" fill="#e6efe6" opacity="0.59"/>
<rect x="615" y="6" width="6" height="6" fill="#0c5c2c" opacity="0.34"/>
<rect x="615" y="12" width="6" height="6" fill="#0c5c2c" opacity="0.81"/>
<rect x="615" y="30" width="6" height="6" fill="#1f3a1f" opacity="0.64"/>
<rect x="621" y="30" width="6" height="6" fill="#00ff66" opacity="0.43"/>
<rect x="627" y="30" width="6" height="6" fill="#1f3a1f" opacity="0.38"/>
<rect x="633" y="30" width="6" height="6" fill="#00ff66" opacity="0.48"/>
<rect x="633" y="36" width="6" height="6" fill="#0c5c2c" opacity="0.81"/>
<rect x="639" y="12" width="6" height="6" fill="#e6efe6" opacity="0.3"/>
<rect x="639" y="24" width="6" height="6" fill="#e6efe6" opacity="0.35"/>
<rect x="645" y="18" width="6" height="6" fill="#00ff66" opacity="0.75"/>
<rect x="645" y="24" width="6" height="6" fill="#0c5c2c" opacity="0.66"><animate attributeName="opacity" values="0.66;0;0.66" dur="1.9s" repeatCount="indefinite"/></rect>
<rect x="645" y="36" width="6" height="6" fill="#00ff66" opacity="0.56"/>
<rect x="651" y="6" width="6" height="6" fill="#e6efe6" opacity="0.64"/>
<rect x="651" y="12" width="6" height="6" fill="#00ff66" opacity="0.55"><animate attributeName="opacity" values="0.55;0;0.55" dur="1.7s" repeatCount="indefinite"/></rect>
<rect x="651" y="18" width="6" height="6" fill="#0c5c2c" opacity="0.65"/>
<rect x="651" y="30" width="6" height="6" fill="#e6efe6" opacity="0.4"/>
<rect x="651" y="36" width="6" height="6" fill="#e6efe6" opacity="0.37"/>
<rect x="657" y="12" width="6" height="6" fill="#00ff66" opacity="0.75"/>
<rect x="657" y="24" width="6" height="6" fill="#e6efe6" opacity="0.65"/>
<rect x="657" y="36" width="6" height="6" fill="#0c5c2c" opacity="0.82"><animate attributeName="opacity" values="0.82;0;0.82" dur="1.9s" repeatCount="indefinite"/></rect>
<rect x="663" y="36" width="6" height="6" fill="#00ff66" opacity="0.4"/>
<rect x="669" y="6" width="6" height="6" fill="#0c5c2c" opacity="0.73"/>
<rect x="669" y="30" width="6" height="6" fill="#00ff66" opacity="0.34"/>
<rect x="675" y="18" width="6" height="6" fill="#1f3a1f" opacity="0.85"/>
<rect x="675" y="30" width="6" height="6" fill="#00ff66" opacity="0.29"/>
<rect x="675" y="36" width="6" height="6" fill="#0c5c2c" opacity="0.87"/>
<rect x="681" y="24" width="6" height="6" fill="#00ff66" opacity="0.66"/>
<rect x="681" y="30" width="6" height="6" fill="#0c5c2c" opacity="0.58"/>
<rect x="681" y="36" width="6" height="6" fill="#00ff66" opacity="0.84"/>
<rect x="687" y="6" width="6" height="6" fill="#1f3a1f" opacity="0.48"/>
<rect x="687" y="12" width="6" height="6" fill="#0c5c2c" opacity="0.46"><animate attributeName="opacity" values="0.46;0;0.46" dur="3.3s" repeatCount="indefinite"/></rect>
<rect x="687" y="18" width="6" height="6" fill="#0c5c2c" opacity="0.43"/>
<rect x="687" y="24" width="6" height="6" fill="#0c5c2c" opacity="0.4"/>
<rect x="687" y="30" width="6" height="6" fill="#0c5c2c" opacity="0.5"/>
<rect x="687" y="36" width="6" height="6" fill="#0c5c2c" opacity="0.79"/>
<rect x="693" y="30" width="6" height="6" fill="#00ff66" opacity="0.35"><animate attributeName="opacity" values="0.35;0;0.35" dur="2.4s" repeatCount="indefinite"/></rect>
<rect x="693" y="36" width="6" height="6" fill="#00ff66" opacity="0.65"/>
<rect x="699" y="6" width="6" height="6" fill="#e6efe6" opacity="0.7"/>
<rect x="699" y="12" width="6" height="6" fill="#0c5c2c" opacity="0.48"><animate attributeName="opacity" values="0.48;0;0.48" dur="2.8s" repeatCount="indefinite"/></rect>
<rect x="705" y="6" width="6" height="6" fill="#0c5c2c" opacity="0.85"/>
<rect x="705" y="12" width="6" height="6" fill="#e6efe6" opacity="0.36"><animate attributeName="opacity" values="0.36;0;0.36" dur="3.4s" repeatCount="indefinite"/></rect>
<rect x="705" y="24" width="6" height="6" fill="#00ff66" opacity="0.26"/>
<rect x="705" y="36" width="6" height="6" fill="#0c5c2c" opacity="0.46"><animate attributeName="opacity" values="0.46;0;0.46" dur="2.5s" repeatCount="indefinite"/></rect>
<rect x="711" y="6" width="6" height="6" fill="#1f3a1f" opacity="0.55"/>
<rect x="711" y="18" width="6" height="6" fill="#0c5c2c" opacity="0.88"><animate attributeName="opacity" values="0.88;0;0.88" dur="2.7s" repeatCount="indefinite"/></rect>
<rect x="717" y="6" width="6" height="6" fill="#00ff66" opacity="0.39"/>
<rect x="717" y="12" width="6" height="6" fill="#0c5c2c" opacity="0.88"/>
<rect x="717" y="18" width="6" height="6" fill="#1f3a1f" opacity="0.48"/>
<rect x="717" y="30" width="6" height="6" fill="#0c5c2c" opacity="0.45"/>
<rect x="723" y="24" width="6" height="6" fill="#00ff66" opacity="0.48"/>
<rect x="723" y="36" width="6" height="6" fill="#0c5c2c" opacity="0.47"/>
<rect x="729" y="12" width="6" height="6" fill="#1f3a1f" opacity="0.86"/>
<rect x="729" y="30" width="6" height="6" fill="#00ff66" opacity="0.29"><animate attributeName="opacity" values="0.29;0;0.29" dur="2.7s" repeatCount="indefinite"/></rect>
<rect x="735" y="6" width="6" height="6" fill="#00ff66" opacity="0.33"/>
<rect x="735" y="24" width="6" height="6" fill="#00ff66" opacity="0.65"/>
<rect x="735" y="30" width="6" height="6" fill="#1f3a1f" opacity="0.3"/>
<rect x="735" y="36" width="6" height="6" fill="#0c5c2c" opacity="0.35"/>
<rect x="741" y="12" width="6" height="6" fill="#e6efe6" opacity="0.68"/>
<rect x="741" y="18" width="6" height="6" fill="#00ff66" opacity="0.87"/>
<rect x="741" y="36" width="6" height="6" fill="#0c5c2c" opacity="0.44"/>
<rect x="747" y="12" width="6" height="6" fill="#00ff66" opacity="0.84"/>
<rect x="747" y="24" width="6" height="6" fill="#0c5c2c" opacity="0.7"/>
<rect x="747" y="36" width="6" height="6" fill="#00ff66" opacity="0.68"/>
<rect x="753" y="12" width="6" height="6" fill="#00ff66" opacity="0.58"><animate attributeName="opacity" values="0.58;0;0.58" dur="2.0s" repeatCount="indefinite"/></rect>
<rect x="753" y="18" width="6" height="6" fill="#00ff66" opacity="0.44"/>
<rect x="753" y="24" width="6" height="6" fill="#1f3a1f" opacity="0.26"/>
<rect x="753" y="30" width="6" height="6" fill="#e6efe6" opacity="0.6"/>
<rect x="753" y="36" width="6" height="6" fill="#0c5c2c" opacity="0.68"/>
<rect x="759" y="12" width="6" height="6" fill="#1f3a1f" opacity="0.46"/>
<rect x="759" y="18" width="6" height="6" fill="#1f3a1f" opacity="0.47"/>
<rect x="759" y="30" width="6" height="6" fill="#1f3a1f" opacity="0.3"/>
<rect x="765" y="6" width="6" height="6" fill="#0c5c2c" opacity="0.48"/>
<rect x="765" y="30" width="6" height="6" fill="#00ff66" opacity="0.54"/>
<rect x="765" y="36" width="6" height="6" fill="#00ff66" opacity="0.34"/>
<rect x="771" y="12" width="6" height="6" fill="#00ff66" opacity="0.72"/>
<rect x="771" y="18" width="6" height="6" fill="#0c5c2c" opacity="0.39"><animate attributeName="opacity" values="0.39;0;0.39" dur="3.3s" repeatCount="indefinite"/></rect>
<rect x="771" y="24" width="6" height="6" fill="#00ff66" opacity="0.49"/>
<rect x="771" y="30" width="6" height="6" fill="#00ff66" opacity="0.4"/>
<rect x="777" y="6" width="6" height="6" fill="#00ff66" opacity="0.35"/>
<rect x="777" y="12" width="6" height="6" fill="#e6efe6" opacity="0.71"/>
<rect x="777" y="18" width="6" height="6" fill="#1f3a1f" opacity="0.8"/>
<rect x="777" y="30" width="6" height="6" fill="#00ff66" opacity="0.26"/>
<rect x="777" y="36" width="6" height="6" fill="#e6efe6" opacity="0.45"/>
<rect x="783" y="6" width="6" height="6" fill="#e6efe6" opacity="0.58"/>
<rect x="789" y="6" width="6" height="6" fill="#e6efe6" opacity="0.77"/>
<rect x="789" y="18" width="6" height="6" fill="#00ff66" opacity="0.57"><animate attributeName="opacity" values="0.57;0;0.57" dur="2.3s" repeatCount="indefinite"/></rect>
<rect x="789" y="30" width="6" height="6" fill="#0c5c2c" opacity="0.68"><animate attributeName="opacity" values="0.68;0;0.68" dur="2.3s" repeatCount="indefinite"/></rect>
<rect x="789" y="36" width="6" height="6" fill="#00ff66" opacity="0.89"/>
<rect x="795" y="18" width="6" height="6" fill="#0c5c2c" opacity="0.47"><animate attributeName="opacity" values="0.47;0;0.47" dur="1.4s" repeatCount="indefinite"/></rect>
<rect x="795" y="24" width="6" height="6" fill="#1f3a1f" opacity="0.89"/>
<rect x="795" y="30" width="6" height="6" fill="#00ff66" opacity="0.42"/>
<rect x="795" y="36" width="6" height="6" fill="#00ff66" opacity="0.46"/>
<rect x="801" y="6" width="6" height="6" fill="#0c5c2c" opacity="0.33"/>
<rect x="801" y="12" width="6" height="6" fill="#0c5c2c" opacity="0.36"><animate attributeName="opacity" values="0.36;0;0.36" dur="2.4s" repeatCount="indefinite"/></rect>
<rect x="801" y="36" width="6" height="6" fill="#00ff66" opacity="0.44"/>
<rect x="807" y="6" width="6" height="6" fill="#0c5c2c" opacity="0.87"/>
<rect x="807" y="12" width="6" height="6" fill="#e6efe6" opacity="0.55"/>
<rect x="807" y="18" width="6" height="6" fill="#0c5c2c" opacity="0.79"/>
<rect x="807" y="24" width="6" height="6" fill="#00ff66" opacity="0.43"/>
<rect x="807" y="36" width="6" height="6" fill="#00ff66" opacity="0.36"/>
<rect x="813" y="6" width="6" height="6" fill="#0c5c2c" opacity="0.61"/>
<rect x="813" y="24" width="6" height="6" fill="#0c5c2c" opacity="0.45"/>
<rect x="813" y="30" width="6" height="6" fill="#e6efe6" opacity="0.59"/>
<rect x="813" y="36" width="6" height="6" fill="#0c5c2c" opacity="0.71"/>
</svg>
